<?xml version="1.0" encoding="utf-8"?>
<!-- Generator: Adobe Illustrator 15.0.0, SVG Export Plug-In . SVG Version: 6.00 Build 0)  -->
<!DOCTYPE svg PUBLIC "-//W3C//DTD SVG 1.1//EN" "http://www.w3.org/Graphics/SVG/1.1/DTD/svg11.dtd">
<svg version="1.1" id="Layer_1" xmlns="http://www.w3.org/2000/svg" xmlns:xlink="http://www.w3.org/1999/xlink" x="0px" y="0px"
	 width="212.712px" height="47.846px" viewBox="0 0 212.712 47.846" enable-background="new 0 0 212.712 47.846"
	 xml:space="preserve">
<g>
	<circle fill="#F3F2F2" cx="133.834" cy="23.924" r="23.922"/>
	<g>
		<polygon fill="#293987" points="127.626,28.514 129.455,17.705 132.419,17.705 130.589,28.514 		"/>
		<path fill="#293987" d="M141.14,17.984c-0.587-0.219-1.506-0.453-2.656-0.453c-2.93,0-4.992,1.465-5.01,3.566
			c-0.018,1.553,1.473,2.42,2.597,2.938c1.154,0.529,1.542,0.867,1.536,1.34c-0.006,0.725-0.922,1.055-1.773,1.055
			c-1.186,0-1.817-0.164-2.79-0.566l-0.383-0.172l-0.416,2.42c0.692,0.301,1.974,0.564,3.303,0.576c3.115,0,5.139-1.449,5.16-3.691
			c0.013-1.23-0.778-2.166-2.488-2.938c-1.035-0.5-1.67-0.834-1.663-1.342c0-0.447,0.537-0.928,1.697-0.928
			c0.971-0.016,1.671,0.195,2.219,0.414l0.266,0.123L141.14,17.984L141.14,17.984z"/>
		<path fill="#293987" d="M146.192,17.705c-0.709,0-1.223,0.217-1.535,0.92l-4.391,9.889h3.137l0.61-1.656h3.748l0.348,1.656h2.79
			l-2.438-10.807h-2.269V17.705L146.192,17.705z M144.846,24.695c0.244-0.623,1.18-3.023,1.18-3.023
			c-0.017,0.031,0.245-0.623,0.394-1.029l0.201,0.932c0,0,0.566,2.582,0.686,3.121H144.846L144.846,24.695z"/>
		<path fill="#293987" d="M122.222,25.113l-0.262-1.48c-0.541-1.727-2.22-3.596-4.101-4.533l2.618,9.414h3.139l4.707-10.809h-3.14
			L122.222,25.113z"/>
	</g>
	<g>
		<path fill="#F79820" d="M114.636,17.705v0.174c3.721,0.895,6.302,3.156,7.324,5.754l-1.074-5.006
			c-0.18-0.684-0.724-0.898-1.367-0.922H114.636L114.636,17.705z"/>
		<path fill="#F79820" d="M133.832,47.846c9.233,0,17.239-5.232,21.228-12.893h-42.454C116.593,42.613,124.6,47.846,133.832,47.846z
			"/>
	</g>
	<path fill="#293987" d="M133.832,0c-9.087,0-16.99,5.066-21.04,12.529h42.08C150.822,5.066,142.92,0,133.832,0z"/>
</g>
<g>
	<circle fill="#203A70" cx="188.788" cy="23.923" r="23.923"/>
	<g>
		<path fill="#139CD8" d="M188.162,31.123c2.081-1.879,3.394-4.604,3.394-7.633c0-3.031-1.312-5.756-3.394-7.654
			c-1.817-1.654-4.239-2.666-6.905-2.666c-5.695,0-10.321,4.625-10.321,10.32c0,5.693,4.626,10.299,10.321,10.299
			C183.923,33.789,186.345,32.779,188.162,31.123L188.162,31.123z"/>
		<path fill="#139CD8" d="M188.162,31.123c2.081-1.879,3.394-4.604,3.394-7.633c0-3.031-1.312-5.756-3.394-7.654V31.123
			L188.162,31.123z"/>
	</g>
	<path fill="#EC2130" d="M195.091,13.17c-2.667,0-5.091,1.012-6.927,2.666c-0.364,0.342-0.708,0.707-1.032,1.09h2.081
		c0.283,0.344,0.545,0.729,0.787,1.09h-3.655c-0.222,0.365-0.424,0.729-0.606,1.092h4.848c0.163,0.363,0.323,0.727,0.444,1.092
		h-5.714c-0.122,0.363-0.224,0.727-0.302,1.109h6.318c0.142,0.688,0.223,1.434,0.223,2.182c0,1.129-0.182,2.242-0.525,3.271h-5.714
		c0.12,0.363,0.262,0.727,0.423,1.092h4.847c-0.181,0.363-0.363,0.746-0.585,1.09h-3.656c0.243,0.383,0.506,0.748,0.787,1.09h2.081
		c-0.323,0.385-0.667,0.748-1.049,1.09c1.837,1.658,4.26,2.668,6.927,2.668c5.695,0,10.301-4.605,10.301-10.301
		C205.39,17.795,200.786,13.17,195.091,13.17L195.091,13.17z"/>
	<g>
		<path fill="#FFFFFF" d="M201.834,25.711c0-0.182,0.163-0.322,0.344-0.322c0.183,0,0.323,0.141,0.323,0.322
			s-0.141,0.344-0.323,0.344C201.997,26.055,201.834,25.893,201.834,25.711L201.834,25.711z M202.178,25.975
			c0.142,0,0.243-0.123,0.243-0.264s-0.102-0.242-0.243-0.242c-0.141,0-0.261,0.102-0.261,0.242S202.037,25.975,202.178,25.975
			L202.178,25.975z M202.138,25.852h-0.08v-0.283h0.12c0.04,0,0.062,0,0.081,0.021c0.02,0.02,0.041,0.041,0.041,0.061
			c0,0.041-0.021,0.08-0.061,0.08l0.061,0.121h-0.082l-0.04-0.102h-0.04V25.852L202.138,25.852z M202.138,25.691h0.04
			c0,0,0.021,0,0.04,0c0,0,0-0.021,0-0.041v-0.02c-0.02,0-0.04,0-0.06,0h-0.021V25.691L202.138,25.691z"/>
		<polygon fill="#FFFFFF" points="179.963,26.055 178.671,26.055 179.438,22.035 177.683,26.055 176.511,26.055 176.309,22.057 
			175.54,26.055 174.37,26.055 175.359,20.824 177.378,20.824 177.479,24.055 178.895,20.824 180.973,20.824 		"/>
		<path fill="#FFFFFF" d="M194.303,25.996c-0.364,0.1-0.627,0.139-0.931,0.139c-0.646,0-1.009-0.324-1.009-0.928
			c0-0.121,0.021-0.242,0.04-0.385l0.08-0.424l0.062-0.324l0.584-3.248h1.272l-0.181,0.969h0.666l-0.182,1.029h-0.666l-0.323,1.775
			c-0.021,0.082-0.041,0.143-0.041,0.184c0,0.223,0.144,0.322,0.445,0.322c0.141,0,0.261-0.02,0.344-0.041L194.303,25.996
			L194.303,25.996z"/>
		<path fill="#FFFFFF" d="M198.039,21.836c-0.101-0.041-0.122-0.041-0.141-0.041c-0.062-0.021-0.102-0.021-0.102-0.041
			c-0.041,0-0.082,0-0.142,0c-0.425,0-0.729,0.182-1.111,0.686l0.121-0.645h-1.172l-0.787,4.26h1.292
			c0.465-2.605,0.646-3.068,1.272-3.068c0.041,0,0.102,0.02,0.161,0.02l0.142,0.039L198.039,21.836L198.039,21.836z"/>
		<path fill="#FFFFFF" d="M189.213,23.146c0,0.525,0.302,0.908,0.989,1.172c0.526,0.221,0.607,0.281,0.607,0.484
			c0,0.262-0.243,0.385-0.749,0.385c-0.382,0-0.746-0.062-1.171-0.182l-0.161,0.99h0.06l0.223,0.059
			c0.081,0,0.201,0.021,0.343,0.021c0.304,0.039,0.546,0.039,0.728,0.039c1.354,0,1.999-0.445,1.999-1.414
			c0-0.584-0.264-0.926-0.93-1.191c-0.545-0.201-0.604-0.262-0.604-0.463c0-0.223,0.221-0.344,0.646-0.344
			c0.242,0,0.604,0.021,0.928,0.059l0.183-0.967c-0.344-0.061-0.849-0.082-1.132-0.082
			C189.718,21.713,189.213,22.359,189.213,23.146L189.213,23.146z"/>
		<path fill="#FFFFFF" d="M184.123,26.055h-1.05l0.021-0.445c-0.324,0.344-0.769,0.506-1.354,0.506c-0.685,0-1.17-0.465-1.17-1.15
			c0-1.033,0.826-1.637,2.262-1.637c0.141,0,0.323,0,0.523,0.02c0.041-0.141,0.041-0.201,0.041-0.262
			c0-0.283-0.224-0.383-0.828-0.383c-0.363,0-0.767,0.039-1.05,0.1l-0.182,0.061l-0.121,0.02l0.182-0.947
			c0.646-0.162,1.051-0.223,1.535-0.223c1.11,0,1.675,0.424,1.675,1.232c0,0.221-0.019,0.383-0.1,0.848l-0.263,1.516l-0.04,0.262
			l-0.041,0.221l-0.02,0.143L184.123,26.055L184.123,26.055z M183.194,24.156c-0.143-0.02-0.201-0.02-0.282-0.02
			c-0.728,0-1.091,0.221-1.091,0.646c0,0.262,0.16,0.443,0.444,0.443C182.792,25.227,183.175,24.783,183.194,24.156L183.194,24.156z
			"/>
		<path fill="#FFFFFF" d="M188.345,25.953c-0.444,0.121-0.869,0.182-1.313,0.182c-1.433,0-2.181-0.666-2.181-1.918
			c0-1.455,0.948-2.525,2.241-2.525c1.05,0,1.719,0.607,1.719,1.535c0,0.322-0.04,0.627-0.144,1.051h-2.564c0,0.08,0,0.1,0,0.141
			c0,0.486,0.363,0.748,1.111,0.748c0.464,0,0.888-0.08,1.332-0.262L188.345,25.953L188.345,25.953z M187.657,23.428
			c0-0.08,0-0.162,0-0.221c0-0.344-0.223-0.545-0.604-0.545c-0.404,0-0.688,0.283-0.811,0.766H187.657L187.657,23.428z"/>
		<path fill="#FFFFFF" d="M202.037,24.117c-0.203,1.41-1.192,2.039-2.505,2.039c-1.434,0-2.018-0.869-2.018-1.959
			c0-1.496,0.988-2.525,2.522-2.525c1.333,0,2.04,0.848,2.04,1.918C202.077,23.854,202.077,23.873,202.037,24.117L202.037,24.117z
			 M200.705,23.57c0-0.445-0.183-0.848-0.708-0.848c-0.646,0-1.05,0.768-1.05,1.453c0,0.566,0.283,0.949,0.728,0.949
			c0.283,0,0.887-0.383,0.99-1.029C200.705,23.932,200.705,23.754,200.705,23.57L200.705,23.57z"/>
	</g>
</g>
<g>
	<circle fill="#3E81AD" cx="78.879" cy="23.923" r="23.923"/>
	<path fill="#941D1E" d="M71.058,12.312c-6.037,0.039-10.925,4.961-10.925,11.018c0,6.084,4.925,11.02,10.997,11.02
		c2.846,0,5.443-1.088,7.396-2.871l0,0h0.001c0.401-0.367,0.774-0.762,1.116-1.18h-2.253c-0.301-0.365-0.573-0.746-0.817-1.137
		h3.883c0.237-0.379,0.451-0.771,0.642-1.18h-5.167c-0.175-0.377-0.329-0.764-0.458-1.156h6.084
		c0.368-1.098,0.566-2.273,0.566-3.496c0-0.809-0.088-1.598-0.253-2.357h-6.722c0.084-0.393,0.188-0.781,0.313-1.158h6.088
		c-0.136-0.404-0.293-0.799-0.474-1.182h-5.146c0.186-0.396,0.396-0.783,0.631-1.156h3.882c-0.26-0.412-0.546-0.807-0.854-1.178
		h-2.162c0.334-0.396,0.702-0.77,1.101-1.113c-1.951-1.783-4.551-2.871-7.397-2.871C71.104,12.312,71.08,12.312,71.058,12.312z"/>
	<path fill="#F16824" d="M96.872,23.336c0,6.082-4.919,11.018-10.993,11.02c-6.071,0.002-10.995-4.93-10.996-11.018v-0.002
		c-0.003-6.088,4.92-11.021,10.991-11.023c6.072-0.002,10.996,4.932,10.998,11.016V23.336z"/>
	<path fill="#F79820" d="M96.872,23.457c0,6.084-4.919,11.02-10.993,11.02c-6.071,0.002-10.995-4.93-10.996-11.016v-0.004
		c-0.003-6.086,4.92-11.02,10.991-11.021c6.072-0.002,10.996,4.932,10.998,11.016V23.457z"/>
	<path fill="#CB2128" d="M71.058,12.438c-6.037,0.039-10.925,4.961-10.925,11.02c0,6.082,4.925,11.018,10.997,11.018
		c2.846,0,5.443-1.088,7.396-2.871l0,0h0.001c0.401-0.367,0.774-0.76,1.116-1.18h-2.253c-0.301-0.363-0.573-0.744-0.817-1.135h3.883
		c0.237-0.379,0.451-0.773,0.642-1.18h-5.167c-0.175-0.379-0.329-0.766-0.458-1.158h6.084c0.368-1.1,0.566-2.273,0.566-3.494
		c0-0.811-0.088-1.602-0.253-2.361h-6.722c0.084-0.391,0.188-0.779,0.313-1.156h6.088c-0.136-0.404-0.293-0.797-0.474-1.18h-5.146
		c0.186-0.396,0.396-0.785,0.631-1.156h3.882c-0.26-0.414-0.546-0.809-0.854-1.182h-2.162c0.334-0.395,0.702-0.768,1.101-1.111
		c-1.951-1.785-4.551-2.873-7.397-2.873C71.104,12.438,71.08,12.438,71.058,12.438z"/>
	<g>
		<path fill="#FFFFFF" d="M75.082,26.262l0.146-0.996c-0.08,0-0.196,0.031-0.302,0.031c-0.407,0-0.452-0.215-0.427-0.375l0.33-2.035
			h0.618l0.15-1.104h-0.583l0.118-0.686h-1.171c-0.024,0.025-0.69,3.857-0.69,4.322c0,0.691,0.386,0.998,0.933,0.996
			C74.631,26.412,74.965,26.293,75.082,26.262z"/>
		<path fill="#FFFFFF" d="M75.454,24.361c0,1.656,1.091,2.051,2.021,2.051c0.858,0,1.235-0.191,1.235-0.191l0.207-1.133
			c0,0-0.653,0.291-1.244,0.291c-1.256,0-1.036-0.941-1.036-0.941h2.381c0,0,0.152-0.76,0.152-1.07c0-0.771-0.385-1.715-1.668-1.715
			C76.323,21.652,75.454,22.924,75.454,24.361z M77.506,22.703c0.661,0,0.539,0.744,0.539,0.805h-1.3
			C76.745,23.43,76.867,22.703,77.506,22.703z"/>
		<path fill="#FFFFFF" d="M84.918,26.262l0.21-1.281c0,0-0.574,0.291-0.969,0.291c-0.83,0-1.162-0.637-1.162-1.32
			c0-1.385,0.715-2.146,1.509-2.146c0.598,0,1.077,0.338,1.077,0.338l0.189-1.242c0,0-0.709-0.289-1.317-0.289
			c-1.353,0-2.667,1.174-2.667,3.381c0,1.461,0.711,2.43,2.107,2.43C84.289,26.422,84.918,26.262,84.918,26.262z"/>
		<path fill="#FFFFFF" d="M68.644,21.672c-0.803,0-1.417,0.256-1.417,0.256l-0.171,1.012c0,0,0.51-0.205,1.275-0.205
			c0.436,0,0.755,0.049,0.755,0.404c0,0.215-0.039,0.295-0.039,0.295s-0.343-0.029-0.502-0.029c-1.012,0-2.076,0.434-2.076,1.738
			c0,1.029,0.697,1.264,1.129,1.264c0.827,0,1.182-0.535,1.201-0.537l-0.038,0.447h1.031l0.459-3.23
			C70.251,21.715,69.059,21.672,68.644,21.672z M68.896,24.301c0.021,0.197-0.124,1.123-0.829,1.123
			c-0.363,0-0.459-0.279-0.459-0.443c0-0.32,0.174-0.707,1.032-0.707C68.839,24.273,68.861,24.297,68.896,24.301z"/>
		<path fill="#FFFFFF" d="M71.348,26.383c0.264,0,1.771,0.068,1.771-1.49c0-1.457-1.396-1.17-1.396-1.756
			c0-0.291,0.229-0.385,0.644-0.385c0.165,0,0.801,0.055,0.801,0.055l0.147-1.037c0,0-0.412-0.092-1.08-0.092
			c-0.866,0-1.744,0.346-1.744,1.531c0,1.346,1.464,1.209,1.464,1.775c0,0.377-0.409,0.408-0.725,0.408
			c-0.546,0-1.036-0.188-1.038-0.178l-0.157,1.023C70.062,26.248,70.364,26.383,71.348,26.383z"/>
		<path fill="#FFFFFF" d="M94.615,20.742l-0.252,1.568c0,0-0.44-0.607-1.13-0.607c-1.073,0-1.968,1.295-1.968,2.783
			c0,0.963,0.477,1.902,1.451,1.902c0.702,0,1.091-0.488,1.091-0.488l-0.052,0.416h1.138l0.896-5.578L94.615,20.742z M94.073,23.805
			c0,0.619-0.309,1.445-0.941,1.445c-0.423,0-0.619-0.354-0.619-0.91c0-0.91,0.407-1.51,0.921-1.51
			C93.855,22.83,94.073,23.119,94.073,23.805z"/>
		<path fill="#FFFFFF" d="M62.305,26.322l0.714-4.211l0.103,4.211h0.808l1.504-4.211l-0.666,4.211h1.199l0.922-5.586h-1.854
			l-1.153,3.428l-0.06-3.428h-1.708l-0.936,5.586H62.305L62.305,26.322z"/>
		<path fill="#FFFFFF" d="M80.341,26.33c0.342-1.941,0.404-3.518,1.218-3.23c0.143-0.75,0.28-1.041,0.435-1.359
			c0,0-0.072-0.016-0.227-0.016c-0.522,0-0.911,0.717-0.911,0.717l0.104-0.658h-1.091L79.14,26.33H80.341z"/>
		<path fill="#FFFFFF" d="M87.619,21.672c-0.803,0-1.416,0.256-1.416,0.256l-0.171,1.012c0,0,0.507-0.205,1.275-0.205
			c0.437,0,0.755,0.049,0.755,0.404c0,0.215-0.038,0.295-0.038,0.295s-0.345-0.029-0.506-0.029c-1.011,0-2.076,0.434-2.076,1.738
			c0,1.029,0.699,1.264,1.131,1.264c0.828,0,1.182-0.535,1.201-0.537l-0.038,0.447h1.031l0.46-3.23
			C89.228,21.715,88.034,21.672,87.619,21.672z M87.871,24.301c0.022,0.197-0.123,1.123-0.828,1.123c-0.364,0-0.46-0.279-0.46-0.443
			c0-0.32,0.176-0.707,1.032-0.707C87.815,24.273,87.836,24.297,87.871,24.301z"/>
		<path fill="#FFFFFF" d="M90.169,26.33c0.341-1.941,0.404-3.518,1.218-3.23c0.142-0.75,0.279-1.041,0.435-1.359
			c0,0-0.073-0.016-0.226-0.016c-0.525,0-0.913,0.717-0.913,0.717l0.104-0.658h-1.091l-0.73,4.547H90.169L90.169,26.33L90.169,26.33
			z"/>
	</g>
</g>
<g>
	<circle fill="#E1DDD2" cx="23.923" cy="23.923" r="23.923"/>
	<g>
		<path fill="#1D80AE" d="M35.068,19.904c-0.996,0-1.783,0.264-2.385,0.383l-0.186,1.514c0.302-0.145,1.251-0.408,2.038-0.434
			c0.788-0.023,1.249,0.146,1.088,0.818c-2.338,0-3.914,0.48-4.236,1.992c-0.465,2.594,2.383,2.521,3.518,1.395l-0.138,0.623h2.083
			l0.904-4.133C38.124,20.311,36.526,19.879,35.068,19.904z M35.207,24.131c-0.115,0.551-0.556,0.793-1.087,0.818
			c-0.464,0.021-0.882-0.387-0.579-0.867c0.231-0.408,0.879-0.504,1.272-0.504c0.162,0,0.348,0,0.511,0
			C35.276,23.77,35.253,23.938,35.207,24.131z"/>
		<polygon fill="#1D80AE" points="39.537,18.27 37.812,26.195 39.929,26.195 41.675,18.27 		"/>
		<path fill="#1D80AE" d="M29.812,18.293h-3.876l-1.717,7.902h2.25l0.582-2.617h1.601c1.577,0,2.877-0.961,3.226-2.594
			C32.271,19.135,30.926,18.293,29.812,18.293z M29.743,20.984c-0.14,0.6-0.744,1.08-1.323,1.08h-1.045l0.464-2.16h1.114
			C29.532,19.904,29.882,20.383,29.743,20.984z"/>
	</g>
	<g>
		<path fill="#1D5C80" d="M14.772,19.904c-0.982,0-1.761,0.264-2.333,0.383l-0.181,1.514c0.273-0.145,1.211-0.408,1.989-0.434
			c0.777-0.023,1.235,0.146,1.096,0.818c-2.309,0-3.863,0.479-4.184,1.992c-0.457,2.594,2.354,2.521,3.452,1.393l-0.135,0.625h2.08
			l0.892-4.133C17.815,20.311,16.214,19.879,14.772,19.904z M14.934,24.131c-0.115,0.551-0.572,0.793-1.098,0.818
			c-0.457,0.021-0.847-0.387-0.55-0.867c0.228-0.408,0.869-0.504,1.235-0.504c0.185,0,0.343,0,0.528,0
			C15.002,23.77,14.956,23.938,14.934,24.131z"/>
		<polygon fill="#1D5C80" points="18.356,20.018 20.438,20.018 20.774,23.695 22.81,20.018 24.958,20.018 20.012,28.824 
			17.686,28.824 19.207,26.234 		"/>
		<path fill="#1D5C80" d="M9.597,18.293H5.711l-1.722,7.902h2.281l0.558-2.617h1.628c1.559,0,2.863-0.961,3.212-2.594
			C12.062,19.135,10.737,18.293,9.597,18.293z M9.526,20.984c-0.14,0.6-0.721,1.08-1.302,1.08H7.155l0.488-2.16h1.117
			C9.317,19.904,9.69,20.383,9.526,20.984z"/>
		<path fill="#1D5C80" d="M42.132,19.295v-0.936h-0.35v-0.125h0.841v0.125h-0.351v0.936H42.132z"/>
		<path fill="#1D5C80" d="M42.762,19.295v-1.061h0.212l0.251,0.75c0.022,0.068,0.039,0.121,0.051,0.156
			c0.011-0.037,0.029-0.096,0.054-0.17l0.256-0.736h0.189v1.061h-0.137v-0.889l-0.309,0.889h-0.125l-0.307-0.902v0.902H42.762
			L42.762,19.295z"/>
	</g>
</g>
</svg>
