<?xml version="1.0" encoding="utf-8"?>
<!-- Generator: Adobe Illustrator 15.0.0, SVG Export Plug-In . SVG Version: 6.00 Build 0)  -->
<!DOCTYPE svg PUBLIC "-//W3C//DTD SVG 1.1//EN" "http://www.w3.org/Graphics/SVG/1.1/DTD/svg11.dtd">
<svg version="1.1" id="Layer_1" xmlns="http://www.w3.org/2000/svg" xmlns:xlink="http://www.w3.org/1999/xlink" x="0px" y="0px"
	 width="13.721px" height="19.06px" viewBox="0 0 13.721 19.06" enable-background="new 0 0 13.721 19.06" xml:space="preserve">
<g>
	<path fill="#BFBEBE" d="M4.219,0.382C0.902,1.579-0.815,5.24,0.381,8.558c1.197,3.318,4.857,5.036,8.177,3.838
		c3.317-1.197,5.036-4.858,3.839-8.176C11.196,0.902,7.539-0.817,4.219,0.382z M8.293,11.661c-2.914,1.052-6.125-0.456-7.176-3.369
		C0.064,5.38,1.571,2.167,4.484,1.116c2.914-1.051,6.127,0.457,7.178,3.369C12.713,7.397,11.205,10.61,8.293,11.661z"/>
	
		<rect x="10.525" y="11.13" transform="matrix(0.8707 -0.4919 0.4919 0.8707 -6.0325 7.4569)" fill="#BFBEBE" width="1.279" height="8.141"/>
</g>
</svg>
